<svg width="130" height="37" viewBox="0 0 130 37" fill="none" xmlns="http://www.w3.org/2000/svg">
<path d="M0 1.5C0 0.671573 0.671573 0 1.5 0H130V3H0V1.5Z" fill="#8C8EFF"/>
<rect y="3" width="2.22857" height="31" fill="#8C8EFF"/>
<path d="M0 34H130V37H1.5C0.671571 37 0 36.3284 0 35.5V34Z" fill="#8C8EFF"/>
<path d="M11.9614 21.9283C11.9678 23.5966 10.7278 24.3892 9.65389 24.3892C8.47136 24.3892 7.65318 23.5327 7.65318 22.1967V16.1818H5.74195V22.4268C5.74195 24.8622 7.07789 26.1278 8.96355 26.1278C10.4401 26.1278 11.4437 25.348 11.8975 24.2997H11.9998V26H13.879V16.1818H11.9614V21.9283ZM16.447 29.6818H18.3583V24.4723H18.4733C18.8185 25.0987 19.5216 26.1918 21.3114 26.1918C23.6892 26.1918 25.4151 24.2869 25.4151 21.1101C25.4151 17.9268 23.6637 16.054 21.2922 16.054C19.4705 16.054 18.8121 17.1662 18.4733 17.7734H18.3135V16.1818H16.447V29.6818ZM18.3199 21.0909C18.3199 19.0391 19.2148 17.6776 20.8831 17.6776C22.6154 17.6776 23.4847 19.1413 23.4847 21.0909C23.4847 23.0597 22.5898 24.5618 20.8831 24.5618C19.2404 24.5618 18.3199 23.1555 18.3199 21.0909ZM31.6729 29.8672C34.1722 29.8672 36.1026 28.723 36.1026 26.2173V16.1818H34.2297V17.7734H34.0891C33.7503 17.1662 33.0727 16.054 31.2446 16.054C28.8732 16.054 27.1281 17.9268 27.1281 21.0526C27.1281 24.1847 28.9115 25.853 31.2318 25.853C33.0344 25.853 33.7311 24.8366 34.0763 24.2102H34.1977V26.1406C34.1977 27.6555 33.1431 28.3267 31.6921 28.3267C30.1004 28.3267 29.4804 27.5277 29.1416 26.9844L27.4989 27.6619C28.0166 28.8445 29.327 29.8672 31.6729 29.8672ZM31.6537 24.2678C29.947 24.2678 29.0585 22.9574 29.0585 21.027C29.0585 19.1413 29.9279 17.6776 31.6537 17.6776C33.322 17.6776 34.2169 19.0391 34.2169 21.027C34.2169 23.0533 33.3029 24.2678 31.6537 24.2678ZM38.6658 26H40.577V20.0043C40.577 18.7195 41.5678 17.7926 42.9229 17.7926C43.3192 17.7926 43.7666 17.8629 43.92 17.9077V16.0795C43.7283 16.054 43.3512 16.0348 43.1083 16.0348C41.9577 16.0348 40.9733 16.6868 40.6154 17.7415H40.5131V16.1818H38.6658V26ZM48.3433 26.2173C49.9669 26.2173 50.881 25.3928 51.2453 24.6577H51.322V26H53.1885V19.4801C53.1885 16.6229 50.9385 16.054 49.3789 16.054C47.6019 16.054 45.9655 16.7699 45.3263 18.5597L47.1225 18.9688C47.4037 18.272 48.1196 17.6009 49.4044 17.6009C50.6381 17.6009 51.2709 18.2464 51.2709 19.3587V19.4034C51.2709 20.1001 50.555 20.0874 48.7908 20.2919C46.9307 20.5092 45.0259 20.995 45.0259 23.2259C45.0259 25.1562 46.4769 26.2173 48.3433 26.2173ZM48.7588 24.6832C47.6786 24.6832 46.8987 24.1974 46.8987 23.2514C46.8987 22.2287 47.8064 21.8643 48.9122 21.7173C49.5323 21.6342 51.0024 21.468 51.2773 21.1932V22.4588C51.2773 23.6222 50.3504 24.6832 48.7588 24.6832ZM59.4096 26.1918C61.1993 26.1918 61.9025 25.0987 62.2476 24.4723H62.4074V26H64.2739V12.9091H62.3627V17.7734H62.2476C61.9025 17.1662 61.2505 16.054 59.4224 16.054C57.0509 16.054 55.3059 17.9268 55.3059 21.1101C55.3059 24.2869 57.0253 26.1918 59.4096 26.1918ZM59.8314 24.5618C58.1248 24.5618 57.2363 23.0597 57.2363 21.0909C57.2363 19.1413 58.1056 17.6776 59.8314 17.6776C61.4998 17.6776 62.3947 19.0391 62.3947 21.0909C62.3947 23.1555 61.4806 24.5618 59.8314 24.5618ZM71.2333 26.1982C73.3746 26.1982 74.8895 25.1435 75.3242 23.5455L73.5152 23.2195C73.17 24.1463 72.3391 24.6193 71.2524 24.6193C69.6161 24.6193 68.5166 23.5582 68.4655 21.6662H75.4456V20.9886C75.4456 17.4411 73.3235 16.054 71.099 16.054C68.3632 16.054 66.5607 18.1378 66.5607 21.1548C66.5607 24.2038 68.3377 26.1982 71.2333 26.1982ZM68.4719 20.2344C68.5486 18.8409 69.5585 17.6328 71.1118 17.6328C72.5948 17.6328 73.5664 18.7322 73.5727 20.2344H68.4719ZM82.3298 29.6818H84.2411V24.4723H84.3561C84.7013 25.0987 85.4044 26.1918 87.1942 26.1918C89.572 26.1918 91.2979 24.2869 91.2979 21.1101C91.2979 17.9268 89.5465 16.054 87.175 16.054C85.3533 16.054 84.6949 17.1662 84.3561 17.7734H84.1963V16.1818H82.3298V29.6818ZM84.2027 21.0909C84.2027 19.0391 85.0976 17.6776 86.7659 17.6776C88.4982 17.6776 89.3675 19.1413 89.3675 21.0909C89.3675 23.0597 88.4726 24.5618 86.7659 24.5618C85.1232 24.5618 84.2027 23.1555 84.2027 21.0909ZM97.5749 26.1982C99.8952 26.1982 101.397 24.8047 101.608 22.8935H99.7482C99.5053 23.9545 98.6807 24.581 97.5877 24.581C95.9705 24.581 94.9286 23.2322 94.9286 21.0909C94.9286 18.9879 95.9896 17.6648 97.5877 17.6648C98.8021 17.6648 99.5436 18.4318 99.7482 19.3523H101.608C101.404 17.3707 99.7865 16.054 97.5557 16.054C94.7879 16.054 92.9982 18.1378 92.9982 21.1357C92.9982 24.0952 94.724 26.1982 97.5749 26.1982Z" fill="black"/>
</svg>
