<svg width="24" height="24" viewBox="0 0 24 24" fill="none" xmlns="http://www.w3.org/2000/svg">
<g clip-path="url(#clip0)">
<path d="M11.7009 18.771H13.1379C13.1379 18.771 13.5709 18.724 13.7919 18.487C14.0019 18.266 14.0019 17.857 14.0019 17.857C14.0019 17.857 13.9709 15.93 14.8709 15.647C15.7579 15.366 16.8829 17.507 18.0819 18.33C18.9979 18.959 19.6869 18.824 19.6869 18.824L22.8979 18.7801C22.8979 18.7801 24.5799 18.675 23.7849 17.354C23.7239 17.249 23.3339 16.379 21.4139 14.594C19.4019 12.733 19.6719 13.033 22.0899 9.80705C23.5589 7.84205 24.1599 6.64105 23.9649 6.13105C23.7989 5.65105 22.7049 5.77005 22.7049 5.77005L19.1029 5.80105C19.1029 5.80105 18.8329 5.77005 18.6379 5.89105C18.4429 6.01005 18.3239 6.28205 18.3239 6.28205C18.3239 6.28205 17.7519 7.81105 16.9879 9.10205C15.3649 11.831 14.7199 11.981 14.4649 11.801C13.8609 11.41 14.0159 10.221 14.0159 9.36905C14.0159 6.72805 14.4199 5.61905 13.2349 5.33405C12.8449 5.24305 12.5539 5.18405 11.5499 5.16805C10.2599 5.15405 9.17195 5.17805 8.55495 5.47905C8.14995 5.68205 7.83495 6.13105 8.01595 6.15405C8.25595 6.18405 8.79495 6.30005 9.07995 6.69105C9.45495 7.19705 9.43895 8.32705 9.43895 8.32705C9.43895 8.32705 9.64995 11.443 8.94495 11.83C8.44995 12.092 7.78995 11.55 6.34995 9.07405C5.61495 7.81405 5.05895 6.40405 5.05895 6.40405C5.05895 6.40405 4.95395 6.14805 4.75995 5.99805C4.53295 5.83305 4.20295 5.77305 4.20295 5.77305L0.767946 5.80305C0.767946 5.80305 0.257946 5.81905 0.0789455 6.04305C-0.0870545 6.23805 0.0629455 6.65805 0.0629455 6.65805C0.0629455 6.65805 2.74895 12.945 5.79495 16.111C8.58495 19.013 11.7509 18.826 11.7509 18.826L11.7009 18.771Z" fill="#000"/>
</g>
<defs>
<clipPath id="clip0">
<rect width="24" height="24" fill="white"/>
</clipPath>
</defs>
</svg>
